<svg height="512pt" viewBox="0 0 512 512" width="512pt" xmlns="http://www.w3.org/2000/svg"><path d="m67.203125 78.203125c0 104.101563 84.695313 188.796875 188.796875 188.796875 0-104.101562-84.695312-188.796875-188.796875-188.796875zm0 0" fill="#b5efee"/><path d="m256 267c104.101562 0 188.796875-84.695312 188.796875-188.796875-104.101563 0-188.796875 84.695313-188.796875 188.796875zm0 0" fill="#6bdedd"/><path d="m153.824219 20.324219c-39.839844 96.179687 5.996093 206.835937 102.175781 246.675781 39.839844-96.179688-5.996094-206.835938-102.175781-246.675781zm0 0" fill="#6bdedd"/><path d="m358.175781 20.324219c-96.179687 39.839843-142.015625 150.496093-102.175781 246.675781 96.179688-39.839844 142.015625-150.496094 102.175781-246.675781zm0 0" fill="#01c5c4"/><path d="m256 0-40 133.5 40 133.5c73.613281-73.613281 73.613281-193.386719 0-267zm0 0" fill="#6bdedd"/><path d="m256 267v-267c-73.613281 73.613281-73.613281 193.386719 0 267zm0 0" fill="#b5efee"/><path d="m512 392h-15c-14.261719 0-27.800781-4.535156-39.152344-13.121094l-9.046875-6.839844-9.046875 6.839844c-11.351562 8.585938-24.890625 13.121094-39.152344 13.121094-14.261718 0-27.800781-4.535156-39.15625-13.121094l-9.046874-6.839844-9.046876 6.839844c-11.351562 8.585938-24.890624 13.121094-39.152343 13.121094s-27.800781-4.535156-39.152344-13.121094l-9.046875-6.839844-120 69.980469 120 69.980469h256zm0 0" fill="#01c5c4"/><path d="m246.953125 378.878906c-11.351563 8.585938-24.890625 13.121094-39.152344 13.121094s-27.800781-4.535156-39.152343-13.121094l-9.046876-6.839844-9.046874 6.839844c-11.355469 8.585938-24.894532 13.121094-39.15625 13.121094-14.261719 0-27.800782-4.535156-39.152344-13.121094l-9.046875-6.839844-9.046875 6.839844c-11.351563 8.585938-24.890625 13.121094-39.152344 13.121094h-15v120h256v-139.960938zm0 0" fill="#6bdedd"/><path d="m474.5 267h-218.5l60.25 75h158.25c20.675781 0 37.5-16.824219 37.5-37.5s-16.824219-37.5-37.5-37.5zm0 0" fill="#4d9668"/><path d="m37.5 267c-20.675781 0-37.5 16.824219-37.5 37.5s16.824219 37.5 37.5 37.5h158.25l60.25-75zm0 0" fill="#73b06a"/></svg>