<svg height="512" viewBox="0 0 64 64" width="512" xmlns="http://www.w3.org/2000/svg"><path d="m22 25h26v26h-26z" fill="#5aaae7"/><path d="m45.08 38c0 1.64-2.45 2.64-3.22 3.96-.79 1.37-.45 3.98-1.82 4.77-1.32.77-3.4-.81-5.04-.81s-3.72 1.58-5.04.81c-1.37-.79-1.03-3.4-1.82-4.77-.77-1.32-3.22-2.32-3.22-3.96s2.45-2.64 3.22-3.96c.79-1.37.45-3.98 1.82-4.77 1.32-.77 3.4.81 5.04.81s3.72-1.58 5.04-.81c1.37.79 1.03 3.4 1.82 4.77.77 1.32 3.22 2.32 3.22 3.96z" fill="#ff5023"/><g fill="#acabb1"><path d="m12 10h3v6h-3z"/><path d="m23 11h5v4h-5z"/><path d="m32 15h6v6h-6z"/><path d="m61 11v21h-5v-17h-13v-4z"/></g><rect fill="#57565c" height="4" rx="1" width="10" x="30" y="3"/><path d="m28 11h15v4h-15z" fill="#57565c"/><path d="m23 9v8l-8-2v-4z" fill="#57565c"/><path d="m48 57v3a1 1 0 0 1 -1 1h-24a1 1 0 0 1 -1-1v-3z" fill="#003f8a"/><path d="m48 22v3h-26v-3a1 1 0 0 1 1-1h24a1 1 0 0 1 1 1z" fill="#1a6fb0"/><path d="m22 51h26v6h-26z" fill="#1a6fb0"/><circle cx="35" cy="38" fill="#ffda44" r="3"/><path d="m34 7h2v4h-2z"/><path d="m3 12h4v2h-4z" fill="#005ece"/><path d="m6.05 6.05h2v4h-2z" fill="#005ece" transform="matrix(.707 -.707 .707 .707 -3.628 7.345)"/><path d="m5.05 16.95h4v2h-4z" fill="#005ece" transform="matrix(.707 -.707 .707 .707 -10.627 10.243)"/><path d="m31 4h5v1h-5z" fill="#787680"/><path d="m32 15h6v1h-6z" fill="#2d2d30"/><rect fill="#78b9eb" height="5" rx="1" width="2" x="23" y="26"/></svg>