<svg height="512" viewBox="0 0 64 64" width="512" xmlns="http://www.w3.org/2000/svg"><ellipse cx="34" cy="59" fill="#787680" rx="19" ry="2"/><path d="m58 29v19l-5 11c0-1.1-8.51-2-19-2s-19 .9-19 2l-6-4-5-7v-15.5a4.506 4.506 0 0 1 4.94-4.48 4.628 4.628 0 0 1 4.06 4.67v.31a2.015 2.015 0 0 0 2 2 2.006 2.006 0 0 0 2-2v-20a4 4 0 0 1 4.39-3.98 4.116 4.116 0 0 1 3.61 4.15v10.33a1.5 1.5 0 0 0 3 0v-16.5a4 4 0 0 1 4.39-3.98 4.116 4.116 0 0 1 3.61 4.15v16.33a1.5 1.5 0 0 0 3 0v-12.5a4 4 0 0 1 4.39-3.98 4.116 4.116 0 0 1 3.61 4.15v12.33a1.5 1.5 0 0 0 3 0v-5.33a4.116 4.116 0 0 1 3.61-4.15 4 4 0 0 1 4.39 3.98z" fill="#ff9811"/><path d="m23 35h2v2h-2z"/><path d="m27 35h2v2h-2z"/><path d="m31 35h2v2h-2z"/><path d="m35 35h2v2h-2z"/><path d="m39 35h2v2h-2z"/><path d="m43 35h2v2h-2z"/><path d="m47 35h2v2h-2z"/><path d="m23 39h2v2h-2z"/><path d="m27 39h2v2h-2z"/><path d="m31 39h2v2h-2z"/><path d="m35 39h2v2h-2z"/><path d="m39 39h2v2h-2z"/><path d="m43 39h2v2h-2z"/><path d="m47 39h2v2h-2z"/><path d="m23 43h2v2h-2z"/><path d="m27 43h2v2h-2z"/><path d="m31 43h2v2h-2z"/><path d="m35 43h2v2h-2z"/><path d="m39 43h2v2h-2z"/><path d="m43 43h2v2h-2z"/><path d="m47 43h2v2h-2z"/><path d="m23 47h2v2h-2z"/><path d="m27 47h2v2h-2z"/><path d="m31 47h2v2h-2z"/><path d="m35 47h2v2h-2z"/><path d="m39 47h2v2h-2z"/><path d="m43 47h2v2h-2z"/><path d="m47 47h2v2h-2z"/><path d="m57.36 14.3a5.021 5.021 0 0 0 -3.85-1.28 5.136 5.136 0 0 0 -4.51 5.15v5.33a.5.5 0 0 1 -1 0v-12.33a5.136 5.136 0 0 0 -4.51-5.15 5.01 5.01 0 0 0 -5.49 4.98v12.5a.5.5 0 0 1 -1 0v-16.33a5.136 5.136 0 0 0 -4.51-5.15 5.01 5.01 0 0 0 -5.49 4.98v16.5a.5.5 0 0 1 -1 0v-10.33a5.136 5.136 0 0 0 -4.51-5.15 5.01 5.01 0 0 0 -5.49 4.98v20a1 1 0 0 1 -2 0v-.31a5.638 5.638 0 0 0 -4.96-5.66 5.494 5.494 0 0 0 -6.04 5.47v15.5a1 1 0 0 0 .19.58l5 7a.888.888 0 0 0 .26.25l5.72 3.82c.45.76 1.99 1.31 6.29 1.76 3.62.38 8.43.59 13.54.59s9.92-.21 13.54-.59c4.97-.52 6.25-1.17 6.43-2.13l4.94-10.87a.978.978 0 0 0 .09-.41v-30a5.014 5.014 0 0 0 -1.64-3.7zm-23.36 45.7a105.19 105.19 0 0 1 -16.41-1 105.19 105.19 0 0 1 16.41-1 105.19 105.19 0 0 1 16.41 1 105.19 105.19 0 0 1 -16.41 1zm23-12.22-4.42 9.73a22.636 22.636 0 0 0 -5.04-.92c-3.62-.38-8.43-.59-13.54-.59s-9.92.21-13.54.59c-3.03.32-4.69.68-5.56 1.14l-5.19-3.46-4.71-6.59v-15.18a3.508 3.508 0 0 1 1.15-2.59 3.443 3.443 0 0 1 2.7-.89 3.626 3.626 0 0 1 3.15 3.67v.31a3 3 0 0 0 6 0v-20a3.03 3.03 0 0 1 .98-2.22 2.969 2.969 0 0 1 2.32-.77 3.131 3.131 0 0 1 2.7 3.16v10.33a2.5 2.5 0 0 0 5 0v-16.5a3.03 3.03 0 0 1 .98-2.22 2.969 2.969 0 0 1 2.32-.77 3.131 3.131 0 0 1 2.7 3.16v16.33a2.5 2.5 0 0 0 5 0v-12.5a3.03 3.03 0 0 1 .98-2.22 2.969 2.969 0 0 1 2.32-.77 3.131 3.131 0 0 1 2.7 3.16v12.33a2.5 2.5 0 0 0 5 0v-5.33a3.131 3.131 0 0 1 2.7-3.16 3 3 0 0 1 3.3 2.99z"/></svg>