<svg id="Capa_1" enable-background="new 0 0 512 512" height="512" viewBox="0 0 512 512" width="512" xmlns="http://www.w3.org/2000/svg"><g fill="#32569d"><path d="m197.407 390.211c-5.693 0-11.114-1.217-16.019-3.403v50.967h32.037v-50.977c-4.905 2.186-10.324 3.413-16.018 3.413z"/><path d="m401.458 390.116c-6.699.459-13.082-.782-18.773-3.318v50.977h32.037v-50.992c-4.088 1.843-8.549 3.01-13.264 3.333z"/><path d="m339.382 390.211h-8.781c-4.071 0-7.983-.707-11.628-1.992v49.556h32.037v-49.556c-3.645 1.284-7.557 1.992-11.628 1.992z"/></g><path d="m359.064 350.572c0-2.639-2.14-4.779-4.779-4.779h-58.932v9.17c0 19.386 15.862 35.248 35.248 35.248h8.781c11.732 0 22.166-5.815 28.582-14.699-5.553-6.825-8.9-15.508-8.9-24.94z" fill="#edcab2"/><path d="m322.853 354.963v-9.17h-27.5v9.17c0 19.386 15.862 35.248 35.248 35.248h8.781c3.239 0 6.375-.452 9.359-1.28-14.88-4.127-25.888-17.82-25.888-33.968z" fill="#e7b795"/><path d="m133.696 390.211c-5.694 0-11.113-1.226-16.019-3.413v50.977h32.038v-50.967c-4.905 2.186-10.327 3.403-16.019 3.403z" fill="#32569d"/><path d="m487.119 260.923c10.758-11.147 17.381-26.309 17.381-43.026 0-23.97-13.609-44.748-33.516-55.066-1.723-.893-2.738-2.716-2.58-4.65.132-1.614.202-3.245.202-4.893 0-34.244-27.76-62.003-62.003-62.003-9.807 0-19.075 2.288-27.317 6.345-2.021.995-4.43.492-5.878-1.234-11.373-13.552-28.431-22.171-47.508-22.171-14.067 0-27.031 4.696-37.434 12.592-1.732 1.315-4.103 1.315-5.835 0-10.402-7.896-23.366-12.592-37.434-12.592-14.847 0-28.461 5.234-39.135 13.939 14.696 4.768 25.688 18.142 26.808 34.118.526 7.511-1.097 14.601-4.302 20.733h32.125c2.977 0 5.667 1.397 7.384 3.833 1.709 2.426 2.118 5.416 1.122 8.203-5.492 15.369-20.154 25.695-36.483 25.695-4.076 0-8.107-.639-11.98-1.898l-1.309-.426v52.996c0 44.05-35.837 79.887-79.887 79.887-16.891 0-32.564-5.284-45.483-14.265v53.532c0 21.801 17.837 39.639 39.639 39.639 13.017 0 24.618-6.362 31.856-16.127 7.238 9.765 18.838 16.127 31.856 16.127 21.801 0 39.639-17.837 39.639-39.639 0-2.639 2.14-4.779 4.779-4.779h112.46c2.64 0 4.779 2.14 4.779 4.779 0 22.713 19.36 41.123 42.393 39.544 20.903-1.433 36.885-19.31 36.885-40.262v-1.946c0-2.381 1.752-4.41 4.111-4.726 27.207-3.653 48.189-26.95 48.189-55.157 0-7.761-1.597-15.146-4.469-21.856-.765-1.789-.405-3.847.945-5.246z" fill="#f5e2d4"/><path d="m260.693 142.016h-31.608c-2.14 4.402-5.095 8.331-8.658 11.609v26.174c3.871 1.258 7.999 1.947 12.289 1.947 17.251 0 31.934-10.994 37.424-26.358 2.329-6.516-2.528-13.372-9.447-13.372z" fill="#303a78"/><path d="m124.057 350.572v-39.78c-10.935-2.142-21.1-6.499-30-12.591v52.371c0 21.801 17.837 39.639 39.639 39.639 5.299 0 10.356-1.069 14.986-2.978-14.412-5.949-24.625-20.167-24.625-36.661z" fill="#e7b795"/><path d="m58.652 153.625c-3.563-3.278-6.518-7.207-8.658-11.609h-31.608c-6.919 0-11.776 6.856-9.447 13.372 5.49 15.364 20.173 26.358 37.424 26.358 4.291 0 8.418-.688 12.289-1.947z" fill="#32569d"/><path d="m194.176 163.872c-9.132 0-17.525-3.157-24.151-8.437-1.864-1.485-4.471-1.485-6.334 0-6.627 5.28-15.02 8.437-24.151 8.437-9.132 0-17.525-3.157-24.151-8.437-1.864-1.485-4.471-1.485-6.334 0-6.627 5.28-15.02 8.437-24.151 8.437-10.128 0-19.342-3.89-26.251-10.247v77.793c0 44.488 36.399 80.887 80.888 80.887 44.488 0 80.887-36.399 80.887-80.887v-77.793c-6.91 6.356-16.123 10.247-26.252 10.247z" fill="#32569d"/><path d="m88.652 231.418v-67.731c-1.234.119-2.484.185-3.749.185-10.128 0-19.342-3.89-26.251-10.247v77.793c0 44.488 36.399 80.887 80.888 80.887 5.124 0 10.134-.504 15-1.426-37.384-7.087-65.888-40.097-65.888-79.461z" fill="#303a78"/><path d="m196.264 86.341c-9.942-.521-19.119 2.705-26.249 8.391-1.859 1.482-4.463 1.474-6.322-.007-6.627-5.281-15.02-8.438-24.153-8.438-9.132 0-17.526 3.157-24.153 8.438-1.859 1.482-4.463 1.49-6.322.007-7.131-5.686-16.308-8.912-26.251-8.391-19.389 1.017-35.248 16.575-36.605 35.943-1.589 22.688 16.346 41.588 38.695 41.588 9.132 0 17.525-3.157 24.151-8.437 1.864-1.485 4.471-1.485 6.334 0 6.627 5.28 15.02 8.437 24.151 8.437 9.132 0 17.525-3.157 24.151-8.437 1.864-1.485 4.471-1.485 6.334 0 6.627 5.28 15.02 8.437 24.151 8.437 22.35 0 40.285-18.9 38.694-41.589-1.357-19.368-17.217-34.925-36.606-35.942z" fill="#edcab2"/><path d="m76.208 122.284c1.039-14.837 10.595-27.43 23.723-32.971-5.223-2.198-11.026-3.292-17.119-2.972-19.389 1.017-35.248 16.575-36.605 35.943-1.589 22.688 16.346 41.588 38.695 41.588 5.321 0 10.388-1.078 15.004-3.018-14.777-6.202-24.909-21.281-23.698-38.57z" fill="#e7b795"/><path d="m504.5 430.275h-28.031v-12.5c0-4.142-3.357-7.5-7.5-7.5s-7.5 3.358-7.5 7.5v12.5h-12v-12.5c0-4.142-3.357-7.5-7.5-7.5s-7.5 3.358-7.5 7.5v12.5h-12.247v-38.963c14.035-8.253 23.478-23.639 23.618-41.065 29.984-5.205 52.303-31.536 52.303-62.223 0-8.005-1.481-15.796-4.407-23.188 11.791-12.85 18.264-29.447 18.264-46.939 0-25.472-13.747-48.64-35.999-60.888.07-1.256.105-2.501.105-3.721 0-12.624-3.421-24.989-9.893-35.757-2.135-3.55-6.743-4.697-10.292-2.564-3.551 2.134-4.699 6.742-2.565 10.292 5.07 8.435 7.75 18.127 7.75 28.03 0 1.391-.06 2.833-.177 4.281-.405 4.952 2.187 9.63 6.604 11.92 18.176 9.42 29.467 27.969 29.467 48.407 0 14.179-5.426 27.609-15.277 37.817-3.443 3.568-4.402 8.831-2.444 13.403 2.564 5.993 3.864 12.354 3.864 18.906 0 24.016-17.922 44.533-41.688 47.724-6.051.813-10.613 6.04-10.613 12.16v1.946c0 17.232-13.133 31.63-29.897 32.78-8.967.617-17.535-2.437-24.128-8.593-6.516-6.083-10.252-14.638-10.252-23.469 0-6.771-5.509-12.279-12.279-12.279h-68.786c-4.143 0-7.5 3.358-7.5 7.5s3.357 7.5 7.5 7.5h2.354v1.669c0 16.698 9.628 31.18 23.619 38.213v37.1h-9.004v-12.5c0-4.142-3.357-7.5-7.5-7.5s-7.5 3.358-7.5 7.5v12.5h-12v-12.5c0-4.142-3.357-7.5-7.5-7.5s-7.5 3.358-7.5 7.5v12.5h-12v-12.5c0-4.142-3.358-7.5-7.5-7.5s-7.5 3.358-7.5 7.5v12.5h-12.543v-38.866c13.367-7.729 22.61-21.827 23.542-38.116h5.532c4.142 0 7.5-3.358 7.5-7.5s-3.358-7.5-7.5-7.5h-8.175c-6.771 0-12.279 5.508-12.279 12.279 0 17.721-14.417 32.139-32.139 32.139-10.098 0-19.754-4.895-25.83-13.093-1.415-1.909-3.649-3.034-6.025-3.034-2.375 0-4.611 1.125-6.025 3.034-6.077 8.198-15.733 13.093-25.831 13.093-17.721 0-32.139-14.417-32.139-32.139v-39.354c11.513 5.502 24.394 8.587 37.982 8.587 48.737 0 88.387-39.65 88.387-88.387 0-4.142-3.358-7.5-7.5-7.5s-7.5 3.358-7.5 7.5c0 40.466-32.921 73.387-73.387 73.387s-73.388-32.921-73.388-73.387v-64.037c5.857 2.596 12.244 3.991 18.75 3.991 9.805 0 19.432-3.156 27.319-8.921 7.887 5.766 17.514 8.921 27.318 8.921 9.803 0 19.431-3.156 27.318-8.921 7.888 5.766 17.514 8.921 27.318 8.921 6.506 0 12.893-1.395 18.75-3.991v28.953c0 4.142 3.358 7.5 7.5 7.5s7.5-3.358 7.5-7.5v-7.358c1.577.162 3.17.27 4.79.27 19.912 0 37.79-12.592 44.487-31.335 1.91-5.347 1.097-11.313-2.178-15.959-3.281-4.657-8.639-7.437-14.332-7.437h-21.184c.848-4.128 1.148-8.406.843-12.757-.993-14.178-8.379-26.562-19.268-34.349 7.421-3.677 15.664-5.684 24.113-5.684 11.985 0 23.362 3.827 32.899 11.066 4.387 3.33 10.517 3.331 14.905 0 9.536-7.239 20.913-11.066 32.898-11.066 16.145 0 31.366 7.105 41.763 19.492 3.668 4.374 9.812 5.665 14.936 3.143 7.515-3.699 15.591-5.575 24.005-5.575 8.383 0 16.421 1.85 23.891 5.5 3.724 1.819 8.213.274 10.031-3.447 1.817-3.722.274-8.213-3.447-10.031-9.538-4.66-19.791-7.022-30.475-7.022-10.047 0-19.722 2.099-28.788 6.243-13.203-14.835-32.008-23.303-51.915-23.303-14.616 0-28.525 4.463-40.352 12.927-11.827-8.464-25.735-12.927-40.352-12.927-14.728 0-28.978 4.754-40.71 13.222-2.539-.577-5.153-.955-7.83-1.096-10.718-.567-21.216 2.574-29.799 8.856-7.887-5.765-17.514-8.921-27.318-8.921s-19.43 3.156-27.318 8.921c-8.584-6.282-19.083-9.419-29.802-8.856-23.278 1.224-42.063 19.67-43.69 42.91-.305 4.35-.005 8.628.843 12.755h-21.184c-5.693 0-11.051 2.78-14.332 7.436-3.274 4.647-4.088 10.613-2.178 15.96 6.697 18.742 24.575 31.334 44.486 31.334 1.619 0 3.212-.109 4.79-.27v42.442c0 28.878 13.922 54.564 35.405 70.703v48.45c0 17.43 9.517 32.67 23.62 40.826v38.877h-13.708v-12.5c0-4.142-3.358-7.5-7.5-7.5s-7.5 3.358-7.5 7.5v12.5h-12v-12.5c0-4.142-3.358-7.5-7.5-7.5s-7.5 3.358-7.5 7.5v12.5h-12v-12.5c0-4.142-3.358-7.5-7.5-7.5s-7.5 3.358-7.5 7.5v12.5h-19.969c-4.142 0-7.5 3.358-7.5 7.5s3.358 7.5 7.5 7.5h497c4.143 0 7.5-3.358 7.5-7.5s-3.357-7.498-7.5-7.498zm-276.573-273.517c.037-.04.077-.076.114-.116 2.074-2.224 3.892-4.613 5.464-7.126h27.189c1.142 0 1.787.674 2.07 1.076.279.396.691 1.218.314 2.272-4.57 12.79-16.772 21.382-30.362 21.382-1.627 0-3.227-.122-4.79-.357v-17.131zm-176.775 17.132c-1.563.234-3.162.357-4.79.357-13.59 0-25.791-8.593-30.361-21.382-.377-1.055.035-1.876.314-2.272.283-.402.929-1.076 2.07-1.076h27.189c1.572 2.513 3.39 4.902 5.464 7.126.037.04.076.076.113.115v17.132zm10.857-27.477c-5.982-6.416-8.937-14.799-8.32-23.604 1.1-15.695 13.789-28.152 29.516-28.978 7.685-.405 15.207 2 21.183 6.765 4.611 3.677 11.056 3.674 15.672-.006 5.585-4.451 12.321-6.803 19.479-6.803s13.893 2.353 19.479 6.804c4.619 3.68 11.063 3.682 15.672.006 5.976-4.765 13.496-7.168 21.181-6.765 15.728.825 28.417 13.282 29.518 28.976.617 8.806-2.337 17.189-8.319 23.605-5.988 6.422-14.118 9.959-22.894 9.959-7.157 0-13.892-2.353-19.477-6.802-2.309-1.84-5.075-2.759-7.841-2.759s-5.533.919-7.841 2.759c-5.585 4.45-12.32 6.803-19.478 6.803s-13.893-2.353-19.477-6.802c-4.617-3.679-11.065-3.679-15.683 0-5.585 4.45-12.32 6.803-19.478 6.803-8.774-.002-16.904-3.539-22.892-9.961zm80.205 283.862h-17.037v-33.35c2.765.507 5.609.786 8.519.786 2.876 0 5.726-.274 8.519-.796v33.36zm31.675 0h-16.674v-38.931c2.978-1.723 5.781-3.764 8.337-6.108 2.556 2.344 5.359 4.385 8.337 6.108zm32.037 0h-17.037v-33.361c2.792.522 5.642.796 8.519.796 2.909 0 5.754-.276 8.519-.783v33.348zm137.585 0h-17.038v-32.767c1.359.131 2.736.203 4.129.203h8.781c1.394 0 2.768-.085 4.128-.216zm-4.128-47.564h-8.781c-15.301 0-27.748-12.448-27.748-27.749v-1.669h48.791c.455 7.713 2.841 15.189 6.84 21.75-4.979 4.742-11.7 7.668-19.102 7.668zm35.802 47.564h-16.674v-37.094c3.548-1.785 6.811-4.053 9.711-6.711 2.194 1.872 4.525 3.515 6.963 4.934zm32.037 0h-17.037v-33.329c2.768.504 5.596.768 8.465.767 1.101 0 2.21-.038 3.32-.114 1.782-.122 3.531-.357 5.252-.676z"/><path d="m112.705 206.478c0-4.142-3.358-7.5-7.5-7.5s-7.5 3.358-7.5 7.5v15.608c0 4.142 3.358 7.5 7.5 7.5s7.5-3.358 7.5-7.5z"/><path d="m181.374 222.086v-15.608c0-4.142-3.358-7.5-7.5-7.5s-7.5 3.358-7.5 7.5v15.608c0 4.142 3.358 7.5 7.5 7.5s7.5-3.358 7.5-7.5z"/><path d="m139.54 288.468c10.438 0 20.877-3.973 28.824-11.92 2.929-2.929 2.929-7.678 0-10.606-2.929-2.929-7.678-2.929-10.606 0-3.097 3.097-6.793 5.235-10.718 6.423v-15.5l9.34-6.786c3.351-2.435 4.094-7.125 1.659-10.476-2.434-3.351-7.124-4.094-10.476-1.659l-8.023 5.829-8.024-5.83c-3.351-2.436-8.042-1.691-10.476 1.66s-1.691 8.041 1.66 10.476l9.34 6.786v15.5c-3.925-1.188-7.621-3.326-10.718-6.423-2.929-2.929-7.678-2.929-10.606 0-2.929 2.929-2.929 7.678 0 10.606 7.946 7.947 18.385 11.92 28.824 11.92z"/></svg>