<svg id="Capa_1" enable-background="new 0 0 512 512" height="512" viewBox="0 0 512 512" width="512" xmlns="http://www.w3.org/2000/svg"><path d="m139.16 362.122c-16.567 0-29.997-13.43-29.997-29.997v123.327h39.428v-93.33z" fill="#d88a55"/><path d="m109.163 332.125v123.327h20v-95.043c-11.651-4.118-20-15.223-20-28.284z" fill="#c57a44"/><path d="m356.106 362.122h39.428v93.33h-39.428z" fill="#d88a55"/><path d="m356.106 362.122h20v93.33h-20z" fill="#c57a44"/><path d="m356.106 424.202h39.428v31.25h-39.428z" fill="#32569d"/><path d="m356.106 424.202h20v31.25h-20z" fill="#303a78"/><path d="m404.395 118.24h-151.373c-6.987 8.482-17.55 13.7-28.902 13.7-3.932 0-7.822-.616-11.562-1.832l-1.31-.425v51.24c0 14.033-3.863 27.769-11.162 39.793 1.189 3.621 1.842 7.48 1.842 11.486v2.786c0 20.389-16.682 37.071-37.071 37.071h-55.695v60.066c0 16.567 13.43 29.997 29.997 29.997h38.859c5.522 0 9.999 4.477 9.999 9.999v83.331h39.428v-83.331c0-5.522 4.477-9.999 9.999-9.999h187.517c5.522 0 9.999 4.477 9.999 9.999v83.331h39.428v-267.218c.001-38.657-31.336-69.994-69.993-69.994z" fill="#ea9b58"/><path d="m139.163 332.125v-60.066h-30v60.066c0 16.567 13.43 29.997 29.997 29.997h30c-16.567 0-29.997-13.43-29.997-29.997z" fill="#d88a55"/><path d="m102.177 94.561v-24.956c0-7.181-5.876-13.057-13.057-13.057h-.981c-7.181 0-13.057 5.876-13.057 13.057v24.956z" fill="#e7b795"/><path d="m193.14 94.561v-24.956c0-7.181-5.876-13.057-13.057-13.057h-.981c-7.181 0-13.057 5.876-13.057 13.057v24.956z" fill="#e7b795"/><path d="m250.69 94.561h-38.441v36.499c3.739 1.215 7.727 1.881 11.872 1.881 16.504 0 30.574-10.417 35.996-25.034 2.401-6.476-2.521-13.346-9.427-13.346z" fill="#f6a96c"/><path d="m55.973 94.561h-38.441c-6.907 0-11.828 6.87-9.426 13.346 5.422 14.617 19.492 25.034 35.996 25.034 4.145 0 8.132-.665 11.872-1.881v-36.499z" fill="#f6a96c"/><path d="m28.106 107.906c-2.402-6.476 2.52-13.346 9.427-13.346h-20c-6.907 0-11.828 6.87-9.427 13.346 5.422 14.617 19.492 25.034 35.996 25.034 3.459 0 6.808-.465 9.996-1.323-12.02-3.237-21.708-12.159-25.992-23.711z" fill="#ea9b58"/><path d="m55.973 94.561v86.363c0 15.045 4.322 29.124 11.767 41.081 4.459-15.469 18.77-26.872 35.624-26.872h61.494c16.854 0 31.165 11.403 35.624 26.872 7.446-11.957 11.767-26.036 11.767-41.081v-86.363z" fill="#d88a55"/><path d="m87.988 198.502c-1.314-5.655-2.015-11.539-2.015-17.579v-86.362h-30v86.363c0 15.045 4.322 29.124 11.767 41.081 3.01-10.442 10.507-19.024 20.248-23.503z" fill="#c57a44"/><path d="m164.858 272.059h-61.494c-20.389 0-37.071-16.682-37.071-37.071v-2.786c0-20.389 16.682-37.071 37.071-37.071h61.494c20.389 0 37.071 16.682 37.071 37.071v2.786c0 20.39-16.682 37.071-37.071 37.071z" fill="#edcab2"/><path d="m88.293 234.989v-2.786c0-20.389 16.682-37.071 37.071-37.071h-22c-20.389 0-37.071 16.682-37.071 37.071v2.786c0 20.389 16.682 37.071 37.071 37.071h22c-20.389-.001-37.071-16.683-37.071-37.071z" fill="#e7b795"/><path d="m109.163 424.202h39.428v31.25h-39.428z" fill="#32569d"/><path d="m109.163 424.202h20v31.25h-20z" fill="#303a78"/><path d="m434.961 424.202h39.428v31.25h-39.428z" fill="#32569d"/><path d="m434.961 424.202h20v31.25h-20z" fill="#303a78"/><path d="m188.018 424.202h39.428v31.25h-39.428z" fill="#32569d"/><path d="m188.018 424.202h20v31.25h-20z" fill="#303a78"/><path d="m504.5 447.952h-22.611v-173.618c0-4.142-3.357-7.5-7.5-7.5s-7.5 3.358-7.5 7.5v142.368h-24.428v-44.58c0-9.649-7.85-17.499-17.499-17.499h-127.629c-4.143 0-7.5 3.358-7.5 7.5s3.357 7.5 7.5 7.5h51.272v78.33h-10.457v-13.215c0-4.142-3.357-7.5-7.5-7.5s-7.5 3.358-7.5 7.5v13.215h-8.998v-13.215c0-4.142-3.357-7.5-7.5-7.5s-7.5 3.358-7.5 7.5v13.215h-8.998v-13.215c0-4.142-3.357-7.5-7.5-7.5s-7.5 3.358-7.5 7.5v13.215h-8.998v-13.215c0-4.142-3.357-7.5-7.5-7.5s-7.5 3.358-7.5 7.5v13.215h-16.208v-75.831c0-1.378 1.121-2.499 2.499-2.499h24.222c4.143 0 7.5-3.358 7.5-7.5s-3.357-7.5-7.5-7.5h-24.222c-9.649 0-17.499 7.85-17.499 17.499v44.58h-24.428v-44.58c0-9.649-7.85-17.499-17.499-17.499h-38.859c-12.405 0-22.498-10.092-22.498-22.498v-52.565h48.196c24.577 0 44.571-19.994 44.571-44.571v-2.786c0-3.078-.314-6.084-.911-8.988 7.131-12.485 11.23-26.913 11.23-42.292 0-4.142-3.357-7.5-7.5-7.5s-7.5 3.358-7.5 7.5c0 8.575-1.551 16.791-4.367 24.398-8.146-10.738-21.036-17.69-35.524-17.69h-61.494c-14.488 0-27.378 6.951-35.524 17.69-2.816-7.608-4.367-15.823-4.367-24.398v-78.863h141.275v43.44c0 4.142 3.357 7.5 7.5 7.5s7.5-3.358 7.5-7.5v-5.294c1.441.138 2.895.234 4.372.234 12.962 0 25.087-5.545 33.618-14.7h146.657c34.459 0 62.493 28.035 62.493 62.494v50.766c0 4.142 3.357 7.5 7.5 7.5s7.5-3.358 7.5-7.5v-50.766c0-42.73-34.764-77.494-77.493-77.494h-137.335c.028-.075.06-.149.088-.225 1.967-5.3 1.203-11.25-2.041-15.915-3.284-4.721-8.674-7.54-14.416-7.54h-30.941-19.109v-17.455c0-11.335-9.222-20.557-20.558-20.557h-.98c-11.336 0-20.558 9.222-20.558 20.557v17.456h-48.867v-17.456c0-11.335-9.222-20.557-20.558-20.557h-.98c-11.336 0-20.558 9.222-20.558 20.557v17.456h-19.108-30.941c-5.742 0-11.132 2.819-14.416 7.54-3.244 4.665-4.008 10.614-2.042 15.914 6.639 17.899 23.93 29.926 43.027 29.926 1.477 0 2.931-.095 4.372-.234v40.717c0 15.379 4.099 29.807 11.23 42.291-.597 2.904-.911 5.91-.911 8.988v2.786c0 24.006 19.079 43.629 42.87 44.528v52.609 115.827h-9.493v-13.215c0-4.142-3.357-7.5-7.5-7.5s-7.5 3.358-7.5 7.5v13.215h-5.998v-13.215c0-4.142-3.357-7.5-7.5-7.5s-7.5 3.358-7.5 7.5v13.215h-9.752c-4.143 0-7.5 3.358-7.5 7.5s3.357 7.5 7.5 7.5h458.081c4.143 0 7.5-3.358 7.5-7.5s-3.357-7.501-7.5-7.501zm-284.751-345.891h30.941c1.203 0 1.87.773 2.102 1.106.322.463.635 1.208.292 2.132-4.468 12.047-16.107 20.142-28.963 20.142-1.485 0-2.943-.111-4.372-.316zm-46.205-32.456c0-3.064 2.493-5.557 5.558-5.557h.98c3.064 0 5.558 2.493 5.558 5.557v17.456h-7.399-4.696v-17.456zm-90.962 0c0-3.064 2.493-5.557 5.558-5.557h.98c3.064 0 5.558 2.493 5.558 5.557v17.456h-4.696-7.399v-17.456zm-34.109 55.519c-1.429.204-2.887.316-4.372.316-12.855 0-24.495-8.094-28.964-20.143-.342-.922-.029-1.668.293-2.131.231-.333.898-1.106 2.102-1.106h30.941zm25.32 109.865v-2.786c0-16.305 13.266-29.571 29.571-29.571h61.494c16.306 0 29.571 13.266 29.571 29.571v2.786c0 16.305-13.266 29.571-29.571 29.571h-61.494c-16.306 0-29.571-13.266-29.571-29.571zm67.297 212.963h-24.428v-16.25h24.428zm.001-31.25h-24.429v-54.598c6.271 4.718 14.063 7.519 22.498 7.519h1.931zm39.428 31.25h-24.428v-78.33h21.929c1.378 0 2.499 1.121 2.499 2.499zm39.427 0h-24.428v-16.25h24.428zm168.087 0h-24.428v-16.25h24.428zm0-31.25h-24.428v-47.079h24.428zm39.428 31.25h-24.428v-78.33h21.929c1.378 0 2.499 1.121 2.499 2.499zm39.428 0h-24.428v-16.25h24.428z"/><path d="m93.443 150.057v15.078c0 4.142 3.357 7.5 7.5 7.5s7.5-3.358 7.5-7.5v-15.078c0-4.142-3.357-7.5-7.5-7.5s-7.5 3.358-7.5 7.5z"/><path d="m159.779 150.057v15.078c0 4.142 3.357 7.5 7.5 7.5s7.5-3.358 7.5-7.5v-15.078c0-4.142-3.357-7.5-7.5-7.5s-7.5 3.358-7.5 7.5z"/><path d="m114.113 222.502h-11.999c-4.143 0-7.5 3.358-7.5 7.5s3.357 7.5 7.5 7.5h11.999c4.143 0 7.5-3.358 7.5-7.5s-3.358-7.5-7.5-7.5z"/><path d="m173.608 230.002c0-4.142-3.357-7.5-7.5-7.5h-11.999c-4.143 0-7.5 3.358-7.5 7.5s3.357 7.5 7.5 7.5h11.999c4.143 0 7.5-3.357 7.5-7.5z"/></svg>